<?xml version="1.0" encoding="UTF-8"?>
<svg version="1.1" xmlns="http://www.w3.org/2000/svg" width="440" height="236">
<path d="M0 0 C1.56340217 1.17891594 3.12721157 2.35729201 4.69140625 3.53515625 C5.46887207 4.12699707 6.24633789 4.71883789 7.04736328 5.32861328 C9.2750403 6.98803872 11.53901842 8.56520987 13.83984375 10.12109375 C14.53190918 10.59748291 15.22397461 11.07387207 15.93701172 11.56469727 C17.23690499 12.456728 18.54677026 13.33445815 19.86767578 14.19506836 C23.27250137 16.58184449 24.3046134 17.76449957 25.27734375 21.8828125 C25.30957031 22.93210937 25.34179688 23.98140625 25.375 25.0625 C23.75 26.625 23.75 26.625 21.375 28.0625 C16.65467921 27.72674669 13.65682325 26.29023577 9.7578125 23.68359375 C8.73945313 23.01005859 7.72109375 22.33652344 6.671875 21.64257812 C5.10179687 20.58200195 5.10179687 20.58200195 3.5 19.5 C2.43007813 18.78908203 1.36015625 18.07816406 0.2578125 17.34570312 C-2.37605109 15.5937135 -5.00320703 13.83248012 -7.625 12.0625 C-7.45371582 12.64402832 -7.28243164 13.22555664 -7.10595703 13.82470703 C-3.61985634 25.85540293 -0.93696882 37.42297046 -0.29541016 49.96533203 C-0.11819648 56.68908108 -0.11819648 56.68908108 3.375 62.0625 C6.99706213 62.77110389 10.56852382 62.76184516 14.25 62.75 C16.22664708 62.76666434 18.20324688 62.79114578 20.1796875 62.82421875 C21.05608887 62.82381592 21.93249023 62.82341309 22.83544922 62.82299805 C25.71763964 63.09481393 27.79756148 63.74861365 30.375 65.0625 C32.375 68.0625 32.375 68.0625 32.125 71.125 C31.375 74.0625 31.375 74.0625 29.375 76.0625 C24.50812991 77.71264333 19.2633634 77.28691279 14.1875 77.3125 C13.18396484 77.333125 12.18042969 77.35375 11.14648438 77.375 C3.87033028 77.41287198 -2.82077883 76.82255557 -8.859375 72.44140625 C-12.18299589 68.4582008 -14.38916357 64.60166445 -16.328125 59.77734375 C-16.76286133 58.70476318 -17.19759766 57.63218262 -17.64550781 56.52709961 C-17.96874023 55.71378174 -18.29197266 54.90046387 -18.625 54.0625 C-18.97167725 54.89160889 -19.31835449 55.72071777 -19.67553711 56.57495117 C-20.1628833 57.74002197 -20.65022949 58.90509277 -21.15234375 60.10546875 C-21.54879845 61.05329224 -21.54879845 61.05329224 -21.95326233 62.02026367 C-23.41665527 65.51728849 -24.88276354 69.01314341 -26.35351562 72.50708008 C-26.95314225 73.93179612 -27.55275162 75.35651943 -28.15234375 76.78125 C-28.45055023 77.48968552 -28.74875671 78.19812103 -29.05599976 78.92802429 C-30.8348214 83.16070367 -32.58619533 87.40339555 -34.31640625 91.65625 C-35.08593048 93.52083623 -35.85546118 95.38541979 -36.625 97.25 C-37.12954712 98.51976685 -37.12954712 98.51976685 -37.64428711 99.81518555 C-39.55585578 104.40114206 -41.18702371 107.43232555 -45.625 110.0625 C-49.16834961 110.0625 -50.88166783 109.70991834 -53.5625 107.375 C-55.27592036 103.64579099 -54.14558283 100.56561499 -52.83273315 96.77493286 C-51.78038236 94.00592719 -50.68949909 91.25446251 -49.58984375 88.50390625 C-48.77160836 86.40475571 -47.95459036 84.30513031 -47.13867188 82.20507812 C-45.85777278 78.92254508 -44.56993595 75.64357663 -43.26049805 72.37231445 C-36.74122286 56.0376126 -32.23434527 42.97885972 -38.625 25.75 C-39.18930372 24.12953324 -39.75189504 22.50846882 -40.3125 20.88671875 C-40.56386719 20.19666748 -40.81523437 19.50661621 -41.07421875 18.7956543 C-41.625 17.0625 -41.625 17.0625 -41.625 15.0625 C-42.14408936 15.42077881 -42.66317871 15.77905762 -43.19799805 16.14819336 C-45.56375513 17.77400813 -47.93794732 19.38706175 -50.3125 21 C-51.12912109 21.56396484 -51.94574219 22.12792969 -52.78710938 22.70898438 C-53.58310547 23.24716797 -54.37910156 23.78535156 -55.19921875 24.33984375 C-55.92713623 24.83734131 -56.65505371 25.33483887 -57.4050293 25.84741211 C-59.88437764 27.20446882 -61.80722017 27.83147812 -64.625 28.0625 C-67.5 25.9375 -67.5 25.9375 -69.625 23.0625 C-69.875 20.625 -69.875 20.625 -68.625 18.0625 C-63.74549197 13.1360389 -57.85689897 9.34390381 -52.125 5.5 C-50.48912811 4.395205 -48.85370411 3.28974649 -47.21875 2.18359375 C-46.43838379 1.65838135 -45.65801758 1.13316895 -44.85400391 0.59204102 C-42.80239517 -0.81577155 -40.80283046 -2.27567349 -38.8046875 -3.7578125 C-26.71528222 -12.04514437 -10.79223911 -8.3545843 0 0 Z " fill="#214C4F" transform="translate(275.625,43.9375)"/>
<path d="M0 0 C0.7425 -0.02449219 1.485 -0.04898438 2.25 -0.07421875 C7.50525105 -0.10207344 10.47552993 0.89141814 14.625 4.375 C16.19921875 6.19921875 16.19921875 6.19921875 17.3125 8.0625 C17.68761719 8.66449219 18.06273437 9.26648438 18.44921875 9.88671875 C21.80369429 16.98572513 23.15168722 23.83520224 23.75 31.625 C23.8962573 33.35956021 24.04462906 35.09394368 24.1953125 36.828125 C24.25477051 37.58254883 24.31422852 38.33697266 24.37548828 39.11425781 C24.64695337 41.57391212 25.10846748 43.95598601 25.625 46.375 C26.72956543 46.35143433 26.72956543 46.35143433 27.85644531 46.32739258 C31.19588529 46.26499528 34.53520255 46.22599382 37.875 46.1875 C39.03386719 46.16236328 40.19273437 46.13722656 41.38671875 46.11132812 C42.50175781 46.10166016 43.61679688 46.09199219 44.765625 46.08203125 C45.79204102 46.0663208 46.81845703 46.05061035 47.87597656 46.03442383 C51.03519944 46.42581956 52.3876509 47.13732285 54.625 49.375 C55.125 52.3125 55.125 52.3125 54.625 55.375 C52.38038634 58.4099319 51.1869445 59.2842395 47.42041016 59.89257812 C45.56101807 59.8993457 45.56101807 59.8993457 43.6640625 59.90625 C42.99587494 59.9100769 42.32768738 59.91390381 41.63925171 59.91784668 C40.22888682 59.92056197 38.81847125 59.91322728 37.40820312 59.89648438 C35.26316289 59.87513103 33.12149675 59.89625796 30.9765625 59.921875 C29.60155518 59.91923033 28.22654994 59.91410247 26.8515625 59.90625 C25.60971191 59.90173828 24.36786133 59.89722656 23.08837891 59.89257812 C19.00301419 59.2820485 16.87893218 57.8629253 13.625 55.375 C12.635 54.715 11.645 54.055 10.625 53.375 C10.27719482 54.32866455 9.92938965 55.2823291 9.57104492 56.26489258 C8.27670166 59.80707215 6.97142974 63.34514083 5.6628418 66.88208008 C5.09833326 68.41255787 4.53678233 69.94412997 3.97827148 71.47680664 C3.17428917 73.68150482 2.35970231 75.88203004 1.54296875 78.08203125 C1.29596725 78.76650833 1.04896576 79.45098541 0.79447937 80.15620422 C-0.45433463 83.4883398 -1.47681391 86.20268766 -4.375 88.375 C-7.56364572 89.54976421 -8.96485499 89.52082934 -12.1875 88.375 C-14.375 86.375 -14.375 86.375 -14.67358398 83.23510742 C-14.34840524 79.03118173 -13.2859407 75.5086772 -11.78515625 71.61328125 C-11.52117538 70.90020309 -11.25719452 70.18712494 -10.98521423 69.45243835 C-10.14659042 67.19332669 -9.29267708 64.94039104 -8.4375 62.6875 C-7.5891678 60.42279254 -6.74403189 58.15692514 -5.90049744 55.89042664 C-5.37645462 54.48564529 -4.84906649 53.08210606 -4.31788635 51.68000793 C0.05459832 40.0687267 -1.49647729 31.01056812 -5.375 19.375 C-7.70665034 19.04001699 -7.70665034 19.04001699 -10.375 19.375 C-12.56277466 21.3125006 -12.56277466 21.3125006 -14.375 23.375 C-15.035 23.375 -15.695 23.375 -16.375 23.375 C-16.375 24.035 -16.375 24.695 -16.375 25.375 C-18.0546875 27.03125 -18.0546875 27.03125 -20.25 28.875 C-22.36535504 30.66433258 -24.41519124 32.41519124 -26.375 34.375 C-29.5054173 34.70802312 -31.55398298 34.85171956 -34.3125 33.25 C-35.93713921 30.38298963 -35.16642568 28.50595719 -34.375 25.375 C-32.765625 23.05859375 -32.765625 23.05859375 -30.625 20.8125 C-29.82191406 19.96558594 -29.01882812 19.11867188 -28.19140625 18.24609375 C-27.25332843 17.28835257 -26.31447039 16.33137522 -25.375 15.375 C-24.83601074 14.81699707 -24.29702148 14.25899414 -23.74169922 13.68408203 C-22.02349393 11.90617266 -20.2954357 10.13854862 -18.5625 8.375 C-18.01174805 7.81095459 -17.46099609 7.24690918 -16.89355469 6.66577148 C-11.26566595 1.02843998 -7.8884726 0.01355408 0 0 Z " fill="#204C4F" transform="translate(167.375,52.625)"/>
<path d="M0 0 C2.68461527 1.8333958 3.28501483 2.87417291 4.5625 5.75 C5.03300781 5.32847656 5.50351563 4.90695313 5.98828125 4.47265625 C6.61089844 3.92480469 7.23351562 3.37695312 7.875 2.8125 C8.48988281 2.26722656 9.10476562 1.72195312 9.73828125 1.16015625 C13.81166771 -1.98864998 18.65194669 -1.82915164 23.5625 -1.25 C27.45488614 0.05491873 30.01779463 1.88395022 32.23730469 5.4128418 C33.75027015 9.22285006 33.9629771 12.48944241 33.890625 16.51953125 C33.88875183 17.24113937 33.88687866 17.9627475 33.88494873 18.70622253 C33.87826439 20.21980462 33.86442254 21.7333705 33.84375 23.24682617 C33.81235944 25.57291564 33.8027513 27.89832826 33.796875 30.22460938 C33.78771347 31.69792501 33.77734043 33.17123371 33.765625 34.64453125 C33.76137512 35.34238235 33.75712524 36.04023346 33.75274658 36.75923157 C33.67972786 41.63277214 33.67972786 41.63277214 32.5625 42.75 C30.37610547 42.82258946 28.18749611 42.83373783 26 42.8125 C24.20369141 42.79896484 24.20369141 42.79896484 22.37109375 42.78515625 C21.44425781 42.77355469 20.51742187 42.76195312 19.5625 42.75 C19.53744385 42.13068604 19.5123877 41.51137207 19.48657227 40.87329102 C19.36927342 38.01955112 19.24716414 35.16603559 19.125 32.3125 C19.08568359 31.33861328 19.04636719 30.36472656 19.00585938 29.36132812 C19.29723675 18.76237899 19.29723675 18.76237899 15.5625 9.75 C13.0625 9.41666667 13.0625 9.41666667 10.5625 9.75 C7.04549877 13.26700123 7.40475557 17.24168838 7.24609375 22.046875 C7.18325195 23.85478516 7.18325195 23.85478516 7.11914062 25.69921875 C7.07982422 26.95347656 7.04050781 28.20773438 7 29.5 C6.93522461 31.40458984 6.93522461 31.40458984 6.86914062 33.34765625 C6.76310345 36.4816438 6.66230152 39.61580768 6.5625 42.75 C1.9425 42.75 -2.6775 42.75 -7.4375 42.75 C-7.48648438 40.94273437 -7.53546875 39.13546875 -7.5859375 37.2734375 C-7.66098718 34.89061011 -7.73653406 32.50779835 -7.8125 30.125 C-7.8434375 28.93519531 -7.874375 27.74539062 -7.90625 26.51953125 C-7.94492188 25.36582031 -7.98359375 24.21210938 -8.0234375 23.0234375 C-8.07056885 21.43668213 -8.07056885 21.43668213 -8.11865234 19.81787109 C-8.47229466 16.41521465 -8.91201517 12.27548483 -11.4375 9.75 C-13.10367115 9.70936168 -14.77138095 9.707279 -16.4375 9.75 C-20.06085415 16.3652927 -19.98319415 22.76092506 -20.125 30.1875 C-20.15916016 31.39599609 -20.19332031 32.60449219 -20.22851562 33.84960938 C-20.31059835 36.81631349 -20.37988015 39.78273676 -20.4375 42.75 C-22.58326637 42.77685938 -24.72912645 42.79633088 -26.875 42.8125 C-28.06996094 42.82410156 -29.26492187 42.83570313 -30.49609375 42.84765625 C-33.4375 42.75 -33.4375 42.75 -34.4375 41.75 C-34.52624135 38.64748799 -34.55268455 35.5673188 -34.53515625 32.46484375 C-34.5337413 31.53402481 -34.53232635 30.60320587 -34.53086853 29.6441803 C-34.52525172 26.65858809 -34.5126964 23.67306971 -34.5 20.6875 C-34.49498716 18.66862087 -34.49042388 16.64974057 -34.48632812 14.63085938 C-34.47527683 9.67054428 -34.45800095 4.71028468 -34.4375 -0.25 C-29.8175 -0.25 -25.1975 -0.25 -20.4375 -0.25 C-20.1075 1.07 -19.7775 2.39 -19.4375 3.75 C-18.839375 3.110625 -18.24125 2.47125 -17.625 1.8125 C-12.81767993 -2.72011607 -5.86992377 -2.13451773 0 0 Z " fill="#214C4F" transform="translate(87.4375,171.25)"/>
<path d="M0 0 C1.9375 1.125 1.9375 1.125 2.9375 3.125 C3.2675 2.135 3.5975 1.145 3.9375 0.125 C8.5575 0.125 13.1775 0.125 17.9375 0.125 C18.03677816 6.38716061 18.10916238 12.64885759 18.15722656 18.91162109 C18.17727468 21.03963202 18.20452054 23.16758832 18.23925781 25.29541016 C18.28807548 28.36374433 18.31053726 31.43134673 18.328125 34.5 C18.34877014 35.44302979 18.36941528 36.38605957 18.39068604 37.35766602 C18.39272084 43.42139567 17.48853758 48.10611642 13.9375 53.125 C8.21654261 58.73723175 1.7558064 59.82195981 -6 60.4375 C-12.230729 60.23811667 -18.03867906 58.67516072 -23 54.875 C-25.17774172 51.97134437 -28.0625 47.9245601 -28.0625 44.125 C-23.1125 44.125 -18.1625 44.125 -13.0625 44.125 C-13.0625 45.115 -13.0625 46.105 -13.0625 47.125 C-8.60505162 48.55138348 -4.05480097 48.96386357 0.3125 47.125 C2.83993766 44.01430749 2.67803312 41.0818699 2.9375 37.125 C2.36 37.764375 1.7825 38.40375 1.1875 39.0625 C-2.51385011 42.45540427 -5.92894844 42.42869742 -10.91015625 42.3359375 C-16.166047 41.82084113 -20.44581764 40.23211739 -23.9375 36.1875 C-28.64075135 29.40928482 -29.86984936 22.69935417 -28.5625 14.5 C-26.82798882 7.93446773 -22.44184452 3.56158537 -16.75 0.125 C-11.04458617 -1.42223087 -5.70624239 -1.63035497 0 0 Z M-12.0625 12.125 C-14.61066163 16.9896722 -14.53523032 21.92262796 -13.0625 27.125 C-10.58915208 30.58768708 -9.23389865 31.88095861 -5.0625 32.75 C-1.07642031 31.91956673 0.40005435 30.24243323 2.9375 27.125 C4.53540826 22.33127521 4.49146763 18.52310878 2.625 13.8125 C1.05801513 10.90946113 1.05801513 10.90946113 -2.0625 9.125 C-6.27246487 8.57105725 -8.77382937 9.4585103 -12.0625 12.125 Z " fill="#204C4F" transform="translate(368.0625,170.875)"/>
<path d="M0 0 C2.14576637 -0.02685938 4.29162645 -0.04633088 6.4375 -0.0625 C7.63246094 -0.07410156 8.82742187 -0.08570313 10.05859375 -0.09765625 C13 0 13 0 14 1 C14.07205511 2.68608966 14.08386068 4.37500659 14.0625 6.0625 C14.05347656 6.98160156 14.04445312 7.90070313 14.03515625 8.84765625 C14.02355469 9.55792969 14.01195312 10.26820313 14 11 C16.97 11 19.94 11 23 11 C23 14.3 23 17.6 23 21 C20.03 21 17.06 21 14 21 C14.495 32.385 14.495 32.385 15 44 C17.31 44 19.62 44 22 44 C23 45 23 45 23.1328125 46.8125 C23.13023437 47.534375 23.12765625 48.25625 23.125 49 C23.12886719 50.0828125 23.12886719 50.0828125 23.1328125 51.1875 C23 53 23 53 22 54 C14.58126026 55.28195823 8.74571008 55.4977756 2 52 C-0.39112209 48.41331687 -0.23381027 46.83603431 -0.1953125 42.58203125 C-0.18886719 41.32841797 -0.18242187 40.07480469 -0.17578125 38.78320312 C-0.15902344 37.47287109 -0.14226562 36.16253906 -0.125 34.8125 C-0.11496639 33.47722013 -0.1058412 32.14193311 -0.09765625 30.80664062 C-0.07405292 27.53757985 -0.04112594 24.26887972 0 21 C-2.60727722 21.42304498 -5.20982778 21.86268305 -7.8125 22.3125 C-8.55048828 22.43044922 -9.28847656 22.54839844 -10.04882812 22.66992188 C-12.88749541 23.17086316 -15.41476837 23.63771376 -17.88671875 25.16796875 C-21.46355118 31.05405439 -21.39408412 37.75537179 -21.625 44.4375 C-21.68300781 45.82098633 -21.68300781 45.82098633 -21.7421875 47.23242188 C-21.83568217 49.48798068 -21.91889361 51.74396176 -22 54 C-26.62 54 -31.24 54 -36 54 C-36 39.81 -36 25.62 -36 11 C-31.38 11 -26.76 11 -22 11 C-21.67 12.98 -21.34 14.96 -21 17 C-20.5875 16.21625 -20.175 15.4325 -19.75 14.625 C-17.84005689 11.76008534 -17.18260459 11.10330293 -14 10 C-10.546875 10.0234375 -10.546875 10.0234375 -6.75 10.375 C-5.48671875 10.48585937 -4.2234375 10.59671875 -2.921875 10.7109375 C-1.95765625 10.80632812 -0.9934375 10.90171875 0 11 C0 7.37 0 3.74 0 0 Z " fill="#214D4F" transform="translate(211,160)"/>
<path d="M0 0 C4.95 0 9.9 0 15 0 C15.02255549 7.54498589 15.04091769 15.08995931 15.05181217 22.63497066 C15.05703989 26.13808885 15.0641355 29.64118285 15.07543945 33.14428711 C15.08834206 37.16780841 15.09322912 41.19130414 15.09765625 45.21484375 C15.10281754 46.47836166 15.10797882 47.74187958 15.11329651 49.04368591 C15.11337204 50.204814 15.11344757 51.36594208 15.11352539 52.56225586 C15.115746 53.59039902 15.11796661 54.61854218 15.12025452 55.67784119 C15 58 15 58 14 59 C11.81360547 59.07258946 9.62499611 59.08373783 7.4375 59.0625 C5.64119141 59.04896484 5.64119141 59.04896484 3.80859375 59.03515625 C2.88175781 59.02355469 1.95492187 59.01195312 1 59 C0.34 57.68 -0.32 56.36 -1 55 C-1.40992188 55.46792969 -1.81984375 55.93585938 -2.2421875 56.41796875 C-5.80254215 59.62228793 -10.67945009 60.11215991 -15.34375 59.88671875 C-21.13215915 58.90546446 -25.2606032 56.53997226 -29 52 C-33.08763673 45.48305603 -33.12622228 36.95374582 -31.4609375 29.62890625 C-29.27590037 23.27789174 -26.00079647 19.00039824 -20 16 C-17.17859889 15.15709178 -14.56641449 14.81192452 -11.625 14.75 C-10.89539063 14.72421875 -10.16578125 14.6984375 -9.4140625 14.671875 C-7 15 -7 15 -1 18 C-0.67 12.06 -0.34 6.12 0 0 Z M-16 29 C-17.8427698 34.52830941 -17.98016758 40.77234641 -15.625 46.125 C-14.12579415 48.09669252 -14.12579415 48.09669252 -12 49 C-6.72922847 49.54764867 -6.72922847 49.54764867 -2.0625 47.6875 C0.10791436 44.24037131 0.19060029 41.09488044 0.25 37.125 C0.27578125 36.09632813 0.3015625 35.06765625 0.328125 34.0078125 C-0.04496802 30.58779313 -0.96972493 28.74974147 -3 26 C-8.26637022 23.36681489 -12.06950121 25.06950121 -16 29 Z " fill="#234E50" transform="translate(319,155)"/>
<path d="M0 0 C13.53 0 27.06 0 41 0 C41 3.63 41 7.26 41 11 C32.42 11 23.84 11 15 11 C15 14.3 15 17.6 15 21 C23.25 21 31.5 21 40 21 C40 24.96 40 28.92 40 33 C31.75 33 23.5 33 15 33 C15 36.3 15 39.6 15 43 C23.91 43 32.82 43 42 43 C42 46.63 42 50.26 42 54 C40.10376798 55.89623202 37.33629641 55.12897626 34.8137207 55.13894653 C33.51374146 55.13591019 33.51374146 55.13591019 32.1875 55.1328125 C30.86141724 55.13424759 30.86141724 55.13424759 29.50854492 55.13571167 C27.63557871 55.13639351 25.76261014 55.13453893 23.88964844 55.13037109 C21.01231612 55.12502289 18.13513992 55.13031593 15.2578125 55.13671875 C13.44270799 55.13605797 11.62760357 55.13477681 9.8125 55.1328125 C8.94584717 55.13483673 8.07919434 55.13686096 7.1862793 55.13894653 C1.11495009 55.11495009 1.11495009 55.11495009 0 54 C-0.09353163 52.31198015 -0.11744791 50.62004793 -0.11352539 48.92944336 C-0.11344986 47.84839828 -0.11337433 46.76735321 -0.11329651 45.65354919 C-0.10813522 44.4775264 -0.10297394 43.3015036 -0.09765625 42.08984375 C-0.0962413 40.89267227 -0.09482635 39.69550079 -0.09336853 38.46205139 C-0.08774979 34.62050934 -0.07519411 30.77902457 -0.0625 26.9375 C-0.05748741 24.34049563 -0.05292409 21.74349035 -0.04882812 19.14648438 C-0.03862313 12.76428284 -0.01905136 6.3822059 0 0 Z " fill="#234E50" transform="translate(241,159)"/>
<path d="M0 0 C4.1743733 2.56195443 7.76193064 5.58197442 8.9609375 10.5390625 C9.21396483 12.47437967 9.33668024 14.42581793 9.4375 16.375 C4.8175 16.375 0.1975 16.375 -4.5625 16.375 C-5.2225 14.395 -5.8825 12.415 -6.5625 10.375 C-9.5325 10.375 -12.5025 10.375 -15.5625 10.375 C-15.8925 11.695 -16.2225 13.015 -16.5625 14.375 C-13.29540725 19.01634606 -8.40546436 19.92467517 -3.2265625 21.35351562 C3.0363754 23.22860893 6.99433086 25.95420015 10.375 31.625 C11.68898373 36.26258963 11.8965247 39.76154761 10.4375 44.375 C7.91063347 48.75264837 4.45714654 52.17056982 -0.3984375 53.87109375 C-10.03979664 56.11610337 -18.62863158 55.92440069 -27.5625 51.375 C-32.34137304 47.83779922 -33.61004223 42.99450084 -34.5625 37.375 C-32.68349272 35.49599272 -29.70426175 36.07222495 -27.1875 36 C-26.02476563 35.95101562 -24.86203125 35.90203125 -23.6640625 35.8515625 C-20.5625 36.375 -20.5625 36.375 -18.75390625 38.8125 C-18.36074219 39.658125 -17.96757812 40.50375 -17.5625 41.375 C-15.48372449 43.06881708 -14.19465314 43.40897368 -11.52734375 43.265625 C-9.53132432 43.02624348 -7.54547003 42.70549501 -5.5625 42.375 C-5.5625 40.395 -5.5625 38.415 -5.5625 36.375 C-9.45241566 34.21393575 -13.23152044 32.8425083 -17.5 31.5625 C-23.90318462 29.47848215 -28.53176401 26.8184219 -32 20.9375 C-33.00969797 16.33776481 -33.04163915 12.70594208 -31.4375 8.25 C-24.7081778 -2.06829404 -11.17456338 -5.11812063 0 0 Z " fill="#224D50" transform="translate(36.5625,159.625)"/>
<path d="M0 0 C3.56107669 3.22722575 5.35142263 6.23005065 6 11 C6.08028946 13.34911415 6.10765823 15.70031669 6.09765625 18.05078125 C6.0962413 18.70958786 6.09482635 19.36839447 6.09336853 20.04716492 C6.087805 22.13565762 6.07525947 24.22404011 6.0625 26.3125 C6.05748028 27.73502449 6.0529182 29.15755066 6.04882812 30.58007812 C6.03870164 34.05346126 6.01911959 37.52660836 6 41 C1.71 41 -2.58 41 -7 41 C-7.66 39.68 -8.32 38.36 -9 37 C-9.556875 37.680625 -9.556875 37.680625 -10.125 38.375 C-13.87781672 41.62744116 -17.73877506 42.21209891 -22.5625 41.875 C-27.50202606 41.16816546 -30.30941711 39.25411052 -33.3125 35.25 C-34.8407498 30.24845519 -34.64813729 26.40429746 -32.5 21.75 C-26.53835974 15.19219572 -20.1833088 14.50916544 -11.5625 14.078125 C-10.716875 14.05234375 -9.87125 14.0265625 -9 14 C-9.66 12.02 -10.32 10.04 -11 8 C-13.31 8 -15.62 8 -18 8 C-18.33 9.65 -18.66 11.3 -19 13 C-23.62 13 -28.24 13 -33 13 C-31.5393586 4.2361516 -31.5393586 4.2361516 -28.1953125 1.55078125 C-27.51210937 1.14214844 -26.82890625 0.73351562 -26.125 0.3125 C-25.44695312 -0.10386719 -24.76890625 -0.52023438 -24.0703125 -0.94921875 C-16.6566731 -4.71199045 -7.03404025 -4.22042415 0 0 Z M-19 25 C-19.33343551 27.54207971 -19.33343551 27.54207971 -19 30 C-17.89471558 31.31968178 -17.89471558 31.31968178 -15.125 31.25 C-12.07269207 31.2500654 -12.07269207 31.2500654 -10.125 29.8125 C-8.65218861 27.43963721 -8.77776806 25.74086056 -9 23 C-14.32170494 22.70437633 -14.32170494 22.70437633 -19 25 Z " fill="#234E50" transform="translate(161,173)"/>
<path d="M0 0 C5.51818994 4.02614717 8.62803358 8.53213515 9.8203125 15.328125 C9.8203125 17.968125 9.8203125 20.608125 9.8203125 23.328125 C0.2503125 23.328125 -9.3196875 23.328125 -19.1796875 23.328125 C-18.1896875 25.638125 -17.1996875 27.948125 -16.1796875 30.328125 C-14.9215625 30.410625 -13.6634375 30.493125 -12.3671875 30.578125 C-11.65949219 30.62453125 -10.95179688 30.6709375 -10.22265625 30.71875 C-9.21138672 30.52539062 -9.21138672 30.52539062 -8.1796875 30.328125 C-7.7465625 29.668125 -7.3134375 29.008125 -6.8671875 28.328125 C-5.1796875 26.328125 -5.1796875 26.328125 -1.82421875 25.9375 C-0.55964844 25.98390625 0.70492187 26.0303125 2.0078125 26.078125 C3.91626953 26.13226563 3.91626953 26.13226563 5.86328125 26.1875 C6.83910156 26.23390625 7.81492187 26.2803125 8.8203125 26.328125 C6.8622588 32.68072457 4.53753657 36.81275004 -1.4296875 40.140625 C-8.75364139 42.45987707 -15.90988304 43.33898207 -23.1796875 40.328125 C-28.23371983 37.13517613 -32.06592394 33.37371396 -33.7734375 27.5546875 C-35.39497079 18.66743772 -34.27336144 11.87013946 -29.1796875 4.328125 C-21.7388668 -3.51490223 -9.37302296 -5.38853951 0 0 Z M-17.4921875 9.703125 C-19.35994003 12.08841417 -19.35994003 12.08841417 -19.1796875 14.328125 C-14.8896875 14.328125 -10.5996875 14.328125 -6.1796875 14.328125 C-6.5096875 12.678125 -6.8396875 11.028125 -7.1796875 9.328125 C-11.42305981 6.49921013 -13.78284012 5.89352498 -17.4921875 9.703125 Z " fill="#224D50" transform="translate(426.1796875,172.671875)"/>
<path d="M0 0 C3.34538919 2.69263032 5.91114556 5.25064724 6.5703125 9.5859375 C6.8546235 18.92081525 6.8546235 18.92081525 3.4140625 23.0390625 C-0.00363423 26.50854252 -2.83790009 27.83357561 -7.7109375 28.2265625 C-11.72153943 28.10728809 -14.44387406 27.14974068 -17.8359375 24.9140625 C-21.84464748 20.58032198 -23.27499178 17.08405339 -23.17578125 11.109375 C-22.54148407 7.01196102 -20.59096823 3.95505845 -17.8359375 0.9140625 C-12.29131103 -2.60464276 -5.82565774 -3.44581458 0 0 Z " fill="#214D4F" transform="translate(246.8359375,5.0859375)"/>
<path d="M0 0 C4.80707295 2.56580054 7.33675424 5.13135648 9.0390625 10.23828125 C9.55956725 17.1349692 8.03346986 20.88590333 3.6015625 26.11328125 C-0.24459766 29.08224699 -4.41885734 28.93207293 -9.11328125 28.72265625 C-13.54544211 27.96876332 -15.05438478 26.66652292 -17.9609375 23.23828125 C-21.0420368 18.86510805 -21.3428273 15.5464466 -20.53125 10.41796875 C-19.31170417 5.75696483 -17.14126324 3.0430488 -13.2109375 0.36328125 C-8.61367234 -1.22807977 -4.5582469 -1.77063375 0 0 Z " fill="#214C4F" transform="translate(177.9609375,20.76171875)"/>
</svg>
